<svg width="85" height="85" viewBox="0 0 85 85" fill="none" xmlns="http://www.w3.org/2000/svg">
<path d="M4.62504 46.7083H8.83337V76.1667C8.83337 80.8085 12.6082 84.5833 17.25 84.5833H67.75C72.3918 84.5833 76.1667 80.8085 76.1667 76.1667V46.7083H80.375C81.2072 46.7082 82.0207 46.4612 82.7126 45.9988C83.4045 45.5364 83.9437 44.8792 84.2622 44.1103C84.5806 43.3415 84.664 42.4955 84.5017 41.6792C84.3394 40.863 83.9387 40.1133 83.3503 39.5247L45.4753 1.64971C45.0849 1.25856 44.6211 0.948245 44.1105 0.736521C43.6 0.524797 43.0527 0.415817 42.5 0.415817C41.9473 0.415817 41.4001 0.524797 40.8895 0.736521C40.379 0.948245 39.9152 1.25856 39.5247 1.64971L1.64975 39.5247C1.06138 40.1133 0.660722 40.863 0.498417 41.6792C0.336112 42.4955 0.41945 43.3415 0.737895 44.1103C1.05634 44.8792 1.59559 45.5364 2.28748 45.9988C2.97938 46.4612 3.79284 46.7082 4.62504 46.7083ZM34.0834 76.1667V55.125H50.9167V76.1667H34.0834ZM42.5 10.5756L67.75 35.8256V55.125L67.7542 76.1667H59.3334V55.125C59.3334 50.4832 55.5585 46.7083 50.9167 46.7083H34.0834C29.4416 46.7083 25.6667 50.4832 25.6667 55.125V76.1667H17.25V35.8256L42.5 10.5756Z" fill="#4C4DDC"/>
</svg>
