<svg width="89" height="80" viewBox="0 0 89 80" fill="none" xmlns="http://www.w3.org/2000/svg">
<path d="M84.9919 56.4081H26.2561L29.2052 50.4014L78.2059 50.3126C79.863 50.3126 81.2833 49.129 81.5792 47.4917L88.3651 9.5082C88.5427 8.51201 88.2764 7.48623 87.6254 6.70703C87.3036 6.32355 86.9023 6.01465 86.4493 5.80175C85.9963 5.58885 85.5023 5.47706 85.0017 5.47412L22.6658 5.26699L22.1332 2.76172C21.7979 1.16387 20.3578 0 18.7205 0H3.48174C2.55832 0 1.67273 0.366825 1.01978 1.01978C0.366825 1.67273 0 2.55832 0 3.48174C0 4.40515 0.366825 5.29075 1.01978 5.9437C1.67273 6.59665 2.55832 6.96348 3.48174 6.96348H15.8996L18.2273 18.0301L23.9579 45.7755L16.5802 57.8186C16.197 58.3357 15.9663 58.9497 15.914 59.5911C15.8617 60.2326 15.99 60.8759 16.2843 61.4482C16.8761 62.622 18.0695 63.3617 19.3912 63.3617H25.5853C24.2648 65.1156 23.5516 67.2519 23.5535 69.4474C23.5535 75.03 28.0906 79.5671 33.6732 79.5671C39.2559 79.5671 43.793 75.03 43.793 69.4474C43.793 67.2478 43.0631 65.1075 41.7611 63.3617H57.6509C56.3304 65.1156 55.6171 67.2519 55.619 69.4474C55.619 75.03 60.1561 79.5671 65.7388 79.5671C71.3214 79.5671 75.8585 75.03 75.8585 69.4474C75.8585 67.2478 75.1286 65.1075 73.8267 63.3617H85.0017C86.9152 63.3617 88.4835 61.8033 88.4835 59.88C88.4778 58.9575 88.1074 58.0748 87.4533 57.4244C86.7992 56.7739 85.9144 56.4086 84.9919 56.4081ZM24.1157 12.1318L80.9085 12.3192L75.3456 43.4675L30.734 43.5464L24.1157 12.1318ZM33.6732 72.5642C31.957 72.5642 30.5564 71.1636 30.5564 69.4474C30.5564 67.7311 31.957 66.3306 33.6732 66.3306C35.3895 66.3306 36.79 67.7311 36.79 69.4474C36.79 70.274 36.4617 71.0668 35.8771 71.6513C35.2926 72.2358 34.4999 72.5642 33.6732 72.5642ZM65.7388 72.5642C64.0226 72.5642 62.622 71.1636 62.622 69.4474C62.622 67.7311 64.0226 66.3306 65.7388 66.3306C67.455 66.3306 68.8556 67.7311 68.8556 69.4474C68.8556 70.274 68.5272 71.0668 67.9427 71.6513C67.3582 72.2358 66.5654 72.5642 65.7388 72.5642Z" fill="#CC3333" fill-opacity="0.8"/>
</svg>
