<svg width="101" height="101" viewBox="0 0 101 101" fill="none" xmlns="http://www.w3.org/2000/svg">
<g filter="url(#filter0_d_15_4)">
<path d="M12.625 25.25C10.3104 25.25 8.41663 27.1437 8.41663 29.4583V84.1667C8.41663 88.7958 12.2041 92.5833 16.8333 92.5833H71.5416C73.8562 92.5833 75.75 90.6896 75.75 88.375C75.75 86.0604 73.8562 84.1667 71.5416 84.1667H21.0416C18.727 84.1667 16.8333 82.2729 16.8333 79.9583V29.4583C16.8333 27.1437 14.9395 25.25 12.625 25.25ZM84.1666 8.41667H33.6666C29.0375 8.41667 25.25 12.2042 25.25 16.8333V67.3333C25.25 71.9625 29.0375 75.75 33.6666 75.75H84.1666C88.7958 75.75 92.5833 71.9625 92.5833 67.3333V16.8333C92.5833 12.2042 88.7958 8.41667 84.1666 8.41667ZM75.75 46.2917H42.0833C39.7687 46.2917 37.875 44.3979 37.875 42.0833C37.875 39.7687 39.7687 37.875 42.0833 37.875H75.75C78.0645 37.875 79.9583 39.7687 79.9583 42.0833C79.9583 44.3979 78.0645 46.2917 75.75 46.2917ZM58.9166 63.125H42.0833C39.7687 63.125 37.875 61.2312 37.875 58.9167C37.875 56.6021 39.7687 54.7083 42.0833 54.7083H58.9166C61.2312 54.7083 63.125 56.6021 63.125 58.9167C63.125 61.2312 61.2312 63.125 58.9166 63.125ZM75.75 29.4583H42.0833C39.7687 29.4583 37.875 27.5646 37.875 25.25C37.875 22.9354 39.7687 21.0417 42.0833 21.0417H75.75C78.0645 21.0417 79.9583 22.9354 79.9583 25.25C79.9583 27.5646 78.0645 29.4583 75.75 29.4583Z" fill="#C160D9" fill-opacity="0.8"/>
</g>
<defs>
<filter id="filter0_d_15_4" x="-4" y="0" width="109" height="109" filterUnits="userSpaceOnUse" color-interpolation-filters="sRGB">
<feFlood flood-opacity="0" result="BackgroundImageFix"/>
<feColorMatrix in="SourceAlpha" type="matrix" values="0 0 0 0 0 0 0 0 0 0 0 0 0 0 0 0 0 0 127 0" result="hardAlpha"/>
<feOffset dy="4"/>
<feGaussianBlur stdDeviation="2"/>
<feComposite in2="hardAlpha" operator="out"/>
<feColorMatrix type="matrix" values="0 0 0 0 0 0 0 0 0 0 0 0 0 0 0 0 0 0 0.25 0"/>
<feBlend mode="normal" in2="BackgroundImageFix" result="effect1_dropShadow_15_4"/>
<feBlend mode="normal" in="SourceGraphic" in2="effect1_dropShadow_15_4" result="shape"/>
</filter>
</defs>
</svg>
