<svg width="101" height="101" viewBox="0 0 101 101" fill="none" xmlns="http://www.w3.org/2000/svg">
<path d="M22.8828 92.3203C26.7844 92.3203 30.5983 91.1634 33.8423 88.9958C37.0863 86.8282 39.6147 83.7473 41.1078 80.1428C42.6008 76.5382 42.9915 72.5719 42.2303 68.7453C41.4692 64.9187 39.5904 61.4038 36.8316 58.645C34.0728 55.8862 30.5579 54.0074 26.7313 53.2462C22.9047 52.4851 18.9383 52.8757 15.3338 54.3688C11.7292 55.8618 8.64836 58.3902 6.48078 61.6343C4.31319 64.8783 3.15625 68.6922 3.15625 72.5938C3.16215 77.8238 5.24237 82.8379 8.94054 86.536C12.6387 90.2342 17.6528 92.3144 22.8828 92.3203V92.3203ZM22.8828 59.1797C25.5359 59.1797 28.1293 59.9664 30.3353 61.4404C32.5412 62.9143 34.2605 65.0093 35.2758 67.4604C36.2911 69.9115 36.5567 72.6086 36.0391 75.2107C35.5215 77.8128 34.244 80.2029 32.368 82.0789C30.492 83.9549 28.1018 85.2325 25.4998 85.7501C22.8977 86.2677 20.2006 86.002 17.7495 84.9867C15.2984 83.9715 13.2034 82.2521 11.7294 80.0462C10.2555 77.8403 9.46875 75.2468 9.46875 72.5938C9.47277 69.0374 10.8873 65.6278 13.4021 63.113C15.9168 60.5983 19.3264 59.1837 22.8828 59.1797ZM58.3906 72.5938C58.3906 76.4953 59.5476 80.3092 61.7151 83.5532C63.8827 86.7973 66.9636 89.3257 70.5682 90.8187C74.1727 92.3118 78.1391 92.7024 81.9656 91.9413C85.7922 91.1801 89.3072 89.3014 92.066 86.5425C94.8248 83.7837 96.7036 80.2688 97.4647 76.4422C98.2259 72.6156 97.8352 68.6493 96.3422 65.0447C94.8491 61.4402 92.3207 58.3593 89.0767 56.1917C85.8327 54.0241 82.0187 52.8672 78.1172 52.8672C72.8872 52.8731 67.8731 54.9533 64.1749 58.6515C60.4767 62.3497 58.3965 67.3638 58.3906 72.5938V72.5938ZM78.1172 59.1797C80.7702 59.1797 83.3637 59.9664 85.5696 61.4404C87.7756 62.9143 89.4949 65.0093 90.5102 67.4604C91.5254 69.9115 91.7911 72.6086 91.2735 75.2107C90.7559 77.8128 89.4784 80.2029 87.6024 82.0789C85.7264 83.9549 83.3362 85.2325 80.7341 85.7501C78.1321 86.2677 75.435 86.002 72.9839 84.9867C70.5328 83.9715 68.4378 82.2521 66.9638 80.0462C65.4898 77.8403 64.7031 75.2468 64.7031 72.5938C64.7071 69.0374 66.1217 65.6278 68.6365 63.113C71.1512 60.5983 74.5608 59.1837 78.1172 59.1797V59.1797Z" fill="#CC3333" fill-opacity="0.8"/>
<path d="M62.7132 25.2847C66.4269 25.2847 69.4375 22.2741 69.4375 18.5603C69.4375 14.8465 66.4269 11.8359 62.7132 11.8359C58.9994 11.8359 55.9888 14.8465 55.9888 18.5603C55.9888 22.2741 58.9994 25.2847 62.7132 25.2847Z" fill="#CC3333" fill-opacity="0.8"/>
<path d="M37.6687 52.5318L47.3438 62.0775V79.6953H53.6563V61.4177C53.6546 60.7908 53.5293 60.1705 53.2874 59.5922C53.0456 59.0139 52.6921 58.489 52.247 58.0476L42.1324 48.0683L55.2413 34.9594L66.7153 46.7068C67.1572 47.157 67.6842 47.5149 68.2656 47.7597C68.847 48.0045 69.4713 48.1313 70.1021 48.1328H75.75V41.8203H70.7667L52.5222 23.1416L52.4285 23.2332L50.7715 21.5761L28.6777 43.6699L37.6048 52.5969L37.6687 52.5318Z" fill="#CC3333" fill-opacity="0.8"/>
</svg>
