<svg width="29" height="29" viewBox="0 0 29 29" fill="none" xmlns="http://www.w3.org/2000/svg">
<path d="M11.7812 12.6875V19.9375C11.7812 20.1779 11.8767 20.4084 12.0467 20.5783C12.2166 20.7483 12.4471 20.8438 12.6875 20.8438C12.9279 20.8438 13.1584 20.7483 13.3283 20.5783C13.4983 20.4084 13.5938 20.1779 13.5938 19.9375V12.6875C13.5938 12.4471 13.4983 12.2166 13.3283 12.0467C13.1584 11.8767 12.9279 11.7813 12.6875 11.7813C12.4471 11.7813 12.2166 11.8767 12.0467 12.0467C11.8767 12.2166 11.7812 12.4471 11.7812 12.6875ZM16.3125 11.7813C16.5529 11.7813 16.7834 11.8767 16.9533 12.0467C17.1233 12.2166 17.2188 12.4471 17.2188 12.6875V19.9375C17.2188 20.1779 17.1233 20.4084 16.9533 20.5783C16.7834 20.7483 16.5529 20.8438 16.3125 20.8438C16.0721 20.8438 15.8416 20.7483 15.6717 20.5783C15.5017 20.4084 15.4062 20.1779 15.4062 19.9375V12.6875C15.4062 12.4471 15.5017 12.2166 15.6717 12.0467C15.8416 11.8767 16.0721 11.7813 16.3125 11.7813ZM18.125 7.25H23.5625C23.8029 7.25 24.0334 7.34548 24.2033 7.51543C24.3733 7.68539 24.4688 7.9159 24.4688 8.15625C24.4688 8.3966 24.3733 8.62711 24.2033 8.79707C24.0334 8.96702 23.8029 9.0625 23.5625 9.0625H22.5602L21.1972 21.344C21.0741 22.4524 20.5465 23.4765 19.7155 24.2202C18.8845 24.964 17.8084 25.3751 16.6931 25.375H12.3069C11.1916 25.3751 10.1155 24.964 9.28451 24.2202C8.45349 23.4765 7.92593 22.4524 7.80281 21.344L6.438 9.0625H5.4375C5.19715 9.0625 4.96664 8.96702 4.79668 8.79707C4.62673 8.62711 4.53125 8.3966 4.53125 8.15625C4.53125 7.9159 4.62673 7.68539 4.79668 7.51543C4.96664 7.34548 5.19715 7.25 5.4375 7.25H10.875C10.875 6.28859 11.2569 5.36656 11.9367 4.68674C12.6166 4.00692 13.5386 3.625 14.5 3.625C15.4614 3.625 16.3834 4.00692 17.0633 4.68674C17.7431 5.36656 18.125 6.28859 18.125 7.25ZM14.5 5.4375C14.0193 5.4375 13.5583 5.62846 13.2184 5.96837C12.8785 6.30828 12.6875 6.7693 12.6875 7.25H16.3125C16.3125 6.7693 16.1215 6.30828 15.7816 5.96837C15.4417 5.62846 14.9807 5.4375 14.5 5.4375ZM8.26319 9.0625L9.60444 21.1446C9.67848 21.8095 9.99508 22.4238 10.4937 22.8699C10.9923 23.316 11.6378 23.5626 12.3069 23.5625H16.6931C17.3618 23.5622 18.007 23.3154 18.5052 22.8693C19.0034 22.4233 19.3197 21.8092 19.3937 21.1446L20.7386 9.0625H8.265H8.26319Z" fill="#EDEDED"/>
</svg>
