<svg width="101" height="101" viewBox="0 0 101 101" fill="none" xmlns="http://www.w3.org/2000/svg">
<path d="M36.2832 90.6455C36.6466 91.0394 36.8398 91.5608 36.8209 92.0964C36.802 92.632 36.5724 93.1385 36.1822 93.5058L31.7948 97.6084C31.403 97.9724 30.8828 98.166 30.3483 98.1467C29.8139 98.1274 29.309 97.8967 28.9446 97.5054L3.39357 69.9688C3.03048 69.5746 2.83762 69.053 2.85691 68.5174C2.8762 67.9818 3.10608 67.4755 3.49659 67.1084L7.89009 63.0119C8.08396 62.8314 8.31149 62.6909 8.55968 62.5984C8.80787 62.5059 9.07186 62.4632 9.33655 62.4728C9.60125 62.4823 9.86146 62.544 10.1023 62.6541C10.3432 62.7643 10.56 62.9209 10.7403 63.1149L36.2832 90.6455ZM68.886 38.8325C69.2491 39.2267 69.442 39.7482 69.4227 40.2838C69.4034 40.8194 69.1735 41.3257 68.783 41.6928L41.1696 67.4882C40.7778 67.8522 40.2576 68.0458 39.7232 68.0265C39.1888 68.0071 38.6838 67.7765 38.3194 67.3852L31.7281 60.2728C31.365 59.8786 31.1722 59.357 31.1914 58.8214C31.2107 58.2858 31.4406 57.7795 31.8311 57.4124L59.4385 31.617C59.6322 31.4366 59.8595 31.2962 60.1076 31.2037C60.3556 31.1112 60.6194 31.0685 60.8839 31.0781C61.1485 31.0877 61.4085 31.1493 61.6492 31.2594C61.8899 31.3696 62.1065 31.5261 62.2867 31.7201L68.886 38.8325ZM45.6782 81.8645C46.4337 82.6786 46.3873 83.9653 45.5752 84.7249L41.1817 88.8254C40.9878 89.0059 40.7603 89.1464 40.5121 89.2389C40.2639 89.3314 40 89.3741 39.7353 89.3646C39.4706 89.355 39.2103 89.2934 38.9695 89.1832C38.7286 89.073 38.5118 88.9164 38.3315 88.7224L12.7947 61.1858C12.4313 60.7919 12.2381 60.2705 12.257 59.7349C12.2759 59.1993 12.5054 58.6928 12.8957 58.3255L17.2811 54.2269C17.6729 53.8629 18.1931 53.6693 18.7275 53.6886C19.2619 53.7079 19.7668 53.9386 20.1313 54.3299L45.6782 81.8645ZM88.2255 39.8203C88.5883 40.2147 88.7808 40.7364 88.7612 41.272C88.7415 41.8076 88.5112 42.3138 88.1205 42.6806L83.729 46.7812C83.3371 47.1455 82.8167 47.3395 82.282 47.3206C81.7472 47.3017 81.2418 47.0713 80.8767 46.6802L55.3359 19.1496C54.972 18.7559 54.7785 18.2344 54.7974 17.6986C54.8163 17.1629 55.0461 16.6563 55.4369 16.2893L59.8405 12.1786C60.0341 11.9982 60.2615 11.8577 60.5095 11.7652C60.7576 11.6727 61.0214 11.6301 61.2859 11.6396C61.5504 11.6492 61.8105 11.7108 62.0512 11.821C62.2919 11.9311 62.5085 12.0877 62.6887 12.2816L88.2255 39.8203ZM97.6064 31.0535C97.9691 31.4482 98.1617 31.97 98.1424 32.5058C98.1231 33.0415 97.8935 33.5481 97.5033 33.9158L93.1199 38.0144C92.9264 38.1949 92.6991 38.3355 92.4512 38.4282C92.2032 38.5208 91.9394 38.5637 91.6749 38.5543C91.4104 38.5449 91.1503 38.4835 90.9095 38.3735C90.6688 38.2635 90.452 38.1072 90.2718 37.9134L64.7349 10.3707C64.3719 9.97616 64.179 9.45453 64.1979 8.91877C64.2168 8.38302 64.446 7.87628 64.8359 7.50833L69.2234 3.40167C69.4166 3.22095 69.6437 3.08016 69.8915 2.98739C70.1393 2.89462 70.403 2.8517 70.6674 2.86108C70.9319 2.87047 71.1918 2.93197 71.4324 3.04207C71.673 3.15217 71.8896 3.3087 72.0695 3.50267L97.6064 31.0535Z" fill="#4C4DDC"/>
</svg>
