<svg width="58" height="52" viewBox="0 0 58 52" fill="none" xmlns="http://www.w3.org/2000/svg">
<rect width="58" height="52" rx="10" fill="#3334CC"/>
<path d="M39.3367 15.2333C39.8551 14.7578 40.545 14.4949 41.2608 14.5001C41.9765 14.5053 42.6622 14.7782 43.1731 15.2613C43.684 15.7443 43.9801 16.3997 43.999 17.0891C44.018 17.7785 43.7582 18.448 43.2745 18.9564L28.5907 36.65C28.3382 36.9121 28.0335 37.1224 27.6947 37.2683C27.3559 37.4143 26.9901 37.4929 26.6191 37.4995C26.248 37.5062 25.8794 37.4406 25.5353 37.3068C25.1911 37.1731 24.8785 36.9738 24.6161 36.721L14.8785 27.3387C14.6073 27.0953 14.3898 26.8017 14.2389 26.4754C14.0881 26.1492 14.007 25.7971 14.0004 25.44C13.9939 25.0829 14.0621 24.7283 14.2009 24.3971C14.3397 24.066 14.5463 23.7652 14.8084 23.5126C15.0705 23.2601 15.3827 23.061 15.7264 22.9273C16.0701 22.7935 16.4382 22.7278 16.8088 22.7341C17.1794 22.7404 17.5449 22.8186 17.8835 22.964C18.222 23.1093 18.5267 23.3189 18.7794 23.5801L26.4857 31.0016L39.2668 15.3113C39.2898 15.284 39.3144 15.258 39.3404 15.2333H39.3367Z" fill="#FAFAFA"/>
</svg>
